<svg t="1631033562705" class="icon" viewBox="0 0 1024 1024" version="1.1" xmlns="http://www.w3.org/2000/svg" p-id="1457" width="200" height="200"><path d="M512 56.878545c251.345455 0 455.121455 203.776 455.121455 455.121455S763.345455 967.121455 512 967.121455 56.878545 763.345455 56.878545 512 260.654545 56.878545 512 56.878545z m0 284.439273C320.046545 341.317818 227.607273 504.087273 227.607273 512c0 7.959273 90.018909 170.682182 284.439272 170.682182S796.439273 519.912727 796.439273 512c0-7.912727-92.485818-170.682182-284.392728-170.682182z m0 56.925091a113.757091 113.757091 0 1 1 0 227.514182 113.757091 113.757091 0 0 1 0-227.514182z m0 56.878546a56.878545 56.878545 0 1 0 0 113.75709 56.878545 56.878545 0 0 0 0-113.75709z" fill="#333333" p-id="1458"></path></svg>