<?xml version="1.0" standalone="no"?><!DOCTYPE svg PUBLIC "-//W3C//DTD SVG 1.1//EN" "http://www.w3.org/Graphics/SVG/1.1/DTD/svg11.dtd"><svg t="1631057335133" class="icon" viewBox="0 0 1024 1024" version="1.1" xmlns="http://www.w3.org/2000/svg" p-id="3315" xmlns:xlink="http://www.w3.org/1999/xlink" width="200" height="200"><defs><style type="text/css"></style></defs><path d="M644.9664 281.770667a34.133333 34.133333 0 0 1 55.210667 40.055466l-1.6384 2.269867-136.533334 172.8512a34.133333 34.133333 0 0 1-55.227733-40.055467l1.655467-2.269866 136.533333-172.8512z" fill="#444444" p-id="3316"></path><path d="M518.144 460.782933a34.133333 34.133333 0 0 1 34.048 31.573334l0.085333 2.56V746.666667a34.133333 34.133333 0 0 1-68.164266 2.56l-0.1024-2.56V494.916267a34.133333 34.133333 0 0 1 34.133333-34.133334z" fill="#444444" p-id="3317"></path><path d="M679.424 462.404267a34.133333 34.133333 0 0 1 2.56 68.164266l-2.56 0.1024h-322.56a34.133333 34.133333 0 0 1-2.56-68.181333l2.56-0.085333h322.56zM679.424 595.8656a34.133333 34.133333 0 0 1 2.56 68.181333l-2.56 0.085334h-322.56a34.133333 34.133333 0 0 1-2.56-68.164267l2.56-0.1024h322.56z" fill="#444444" p-id="3318"></path><path d="M870.4 85.333333H153.6a68.266667 68.266667 0 0 0-68.266667 68.266667v716.8a68.266667 68.266667 0 0 0 68.266667 68.266667h716.8a68.266667 68.266667 0 0 0 68.266667-68.266667V153.6a68.266667 68.266667 0 0 0-68.266667-68.266667zM153.6 153.6h716.8v716.8H153.6V153.6z" fill="#444444" p-id="3319"></path><path d="M343.381333 276.138667a34.133333 34.133333 0 0 1 47.957334 5.632L505.770667 426.666667h-86.9888l-81.015467-102.570667-1.655467-2.269867a34.133333 34.133333 0 0 1 7.287467-45.687466z" fill="#00B386" p-id="3320"></path></svg>